# vtk DataFile Version 3.0
atlas_points data
ASCII
DATASET POLYDATA
POINTS 17 float
59.392972363074776 -128.31652863000463 41.215625047683716
46.49281375663253 -143.0940327944587 45.717810232559906
42.89975409938053 -150.66713845344813 65.62758278183365
53.21611513818354 -142.53466638862642 82.1593421995675
68.11459872852221 -125.60304937950997 78.67359382540891
71.0091873948345 -118.8140994519869 57.27107463739421
70.72299713299078 -139.62311678088412 40.50755923065953
57.626753885670894 -154.0574775645764 44.251204219278165
52.81855838444696 -162.84520815796103 64.24961596887006
64.72522699052077 -153.12742636448434 80.41195552953843
78.54463246234351 -137.88588205660292 75.09023150275861
81.10610749446158 -131.31299234545682 55.87225680585404
81.05107608937706 -152.5227793009791 43.77828825915248
69.0624948985541 -168.3332798709278 52.30484361829221
77.24393436874013 -161.9947106262696 70.66269472097116
87.7982780220517 -148.17582047741195 61.602730340437546
86.25535518650614 -166.40874969244987 55.7495877851996

VERTICES 17 34
1 0
1 1
1 2
1 3
1 4
1 5
1 6
1 7
1 8
1 9
1 10
1 11
1 12
1 13
1 14
1 15
1 16
