# vtk DataFile Version 3.0
end_points data
ASCII
DATASET POLYDATA
POINTS 15 float
80.6738 -159.674 31.95
40.1738 -98.1738 64.45
40.1738 -98.1738 64.45
40.1738 -98.1738 64.45
64.6738 -101.174 57.45
86.1738 -158.174 31.95
90.6738 -148.174 67.95
82.1738 -161.674 76.95
82.1738 -161.674 76.95
82.1738 -161.674 76.95
92.6738 -138.174 68.95
63.6738 -133.174 88.95
38.1738 -144.674 80.45
80.6738 -159.674 31.95
80.6738 -159.674 31.95

VERTICES 15 30
1 0
1 1
1 2
1 3
1 4
1 5
1 6
1 7
1 8
1 9
1 10
1 11
1 12
1 13
1 14
