# vtk DataFile Version 3.0
all_branch_points data
ASCII
DATASET POLYDATA
POINTS 13 float
35.673828125 -139.173828125 95.44999694824219
29.173828125 -138.173828125 93.44999694824219
50.673828125 -133.673828125 94.94999694824219
36.173828125 -139.673828125 95.44999694824219
59.173828125 -152.673828125 92.94999694824219
50.673828125 -145.673828125 96.44999694824219
44.673828125 -115.173828125 90.94999694824219
55.673828125 -104.173828125 78.94999694824219
79.173828125 -115.173828125 70.94999694824219
80.673828125 -160.173828125 32.45000076293945
45.673828125 -115.673828125 89.44999694824219
55.673828125 -102.673828125 73.44999694824219
62.173828125 -101.173828125 66.94999694824219

VERTICES 13 26
1 0
1 1
1 2
1 3
1 4
1 5
1 6
1 7
1 8
1 9
1 10
1 11
1 12
